<svg xmlns="http://www.w3.org/2000/svg" viewBox="0 0 730.85 192.3"><defs><style>.cls-1{fill:#b81111;}.cls-2{isolation:isolate;}.cls-3{fill:#fff;}</style></defs><title>hobo_1</title><g id="Calque_2" data-name="Calque 2"><g id="Calque_1-2" data-name="Calque 1"><g id="Calque_2-2" data-name="Calque 2"><g id="Calque_1-2-2" data-name="Calque 1-2"><rect class="cls-1" x="364.74" width="166.73" height="190.95"/><g class="cls-2"><path class="cls-1" d="M95.69,113.23H42V190H0V9.58H42V69.89H95.69V9.58H138V190H95.69Z"/><path class="cls-1" d="M342,98.78c0,51.45-40.8,93.52-90.11,93.52-49.54,0-89.86-42.07-89.86-93.52,0-51.95,40.32-94,89.86-94C301.17,4.76,342,46.83,342,98.78Zm-42.5,0c0-27.62-21.13-50.68-47.61-50.68S204,71.16,204,98.78c0,27.37,21.37,49.93,47.84,49.93S299.47,126.15,299.47,98.78Z"/></g><g class="cls-2"><path class="cls-3" d="M364.44,10.51h71A52,52,0,0,1,471.89,25.2c9.5,9.13,14.78,23.57,14.78,36.5,0,5.58-.79,13.18-2.64,18.25a46.75,46.75,0,0,1,9.51,7.85l-.27-.25c12.41,11.91,19.27,24.84,19.27,41.31,0,16.73-6.86,31.68-19,43.34A67.26,67.26,0,0,1,447.33,191H364.44Zm71,59.05c3.16-.26,5.8-4.82,5.8-7.86,0-2.79-2.64-7.35-5.8-7.86H409.85V69.56Zm11.87,78.05c10.83-.25,19.81-8.11,19.81-18.75,0-10.14-9-15.71-19.81-16.22H409.85v35Z"/></g><g class="cls-2"><path class="cls-1" d="M730.85,98.78c0,51.45-40.8,93.52-90.1,93.52-49.55,0-89.87-42.07-89.87-93.52,0-51.95,40.32-94,89.87-94C690.05,4.76,730.85,46.83,730.85,98.78Zm-42.5,0c0-27.62-21.13-50.68-47.6-50.68S592.9,71.16,592.9,98.78c0,27.37,21.37,49.93,47.85,49.93S688.35,126.15,688.35,98.78Z"/></g></g></g></g></g></svg>